# xmcd
#
# Track frame offsets:
#	150
#	4577
#	8985
#	16582
#	21014
#	33639
#	39834
#	53993
#	60847
#	68248
#	71797
#	86341
#	92957
#	107970
#	114873
#	125499
#	130257
#	146253
#	152850
#	168322
#	175326
#	189922
#	196513
#	211093
#	217712
#	234826
#	242435
#
# Disc length: 3290 seconds
#
# Revision: 1
# Processed by: cddbd v1.5.2PL0 Copyright (c) Steve Scherf et al.
# Submitted via: audiograbber 1.83.01
#
DISCID=4e0cd81b
DTITLE=Bert Casey - Flatpicking Guitar Songs
DYEAR=2001
DGENRE=Bluegrass
TTITLE0=Intro
TTITLE1=Tuning the Guitar
TTITLE2=Will the Circle Be Unbroken (slow)
TTITLE3=Will the Circle Be Unbroken 
TTITLE4=Wildwood Flower (slow)
TTITLE5=Wildwood Flower
TTITLE6=Home Sweet Home (slow)
TTITLE7=Home Sweet Home
TTITLE8=Cripple Creek (slow)
TTITLE9=Cripple Creek
TTITLE10=Red Haired Boy (slow)
TTITLE11=Red Haired Boy
TTITLE12=Nine Pound Hammer (slow)
TTITLE13=Nine Pound Hammer
TTITLE14=Sally Goodin (slow)
TTITLE15=Sally Goodin
TTITLE16=Old Joe Clark (slow)
TTITLE17=Old Joe Clark
TTITLE18=Black Mountain Rag (slow)
TTITLE19=Black Mountain Rag
TTITLE20=Salt River (slow)
TTITLE21=Salt River
TTITLE22=Billy in the Lowground (slow)
TTITLE23=Billy in the Lowground
TTITLE24=John Hardy (slow)
TTITLE25=John Hardy
TTITLE26=Outro
EXTD=
EXTT0=
EXTT1=
EXTT2=
EXTT3=
EXTT4=
EXTT5=
EXTT6=
EXTT7=
EXTT8=
EXTT9=
EXTT10=
EXTT11=
EXTT12=
EXTT13=
EXTT14=
EXTT15=
EXTT16=
EXTT17=
EXTT18=
EXTT19=
EXTT20=
EXTT21=
EXTT22=
EXTT23=
EXTT24=
EXTT25=
EXTT26=
PLAYORDER=
